<svg width="200px" height="200px" viewBox="0 -22.266 200 200" version="1.1" xmlns="http://www.w3.org/2000/svg" xmlns:xlink="http://www.w3.org/1999/xlink" preserveAspectRatio="xMidYMid"><g><path d="M169.419 12.966A162.892 162.892 0 0 0 128.158 0c-1.777 3.213 -3.854 7.535 -5.286 10.973 -15.384 -2.313 -30.627 -2.313 -45.729 0 -1.431 -3.438 -3.555 -7.76 -5.348 -10.973a162.351 162.351 0 0 0 -41.293 12.998C4.389 52.459 -2.69 90.938 0.849 128.872c17.32 12.934 34.104 20.791 50.605 25.932A125.855 125.855 0 0 0 62.293 136.953a106.573 106.573 0 0 1 -17.067 -8.306 84.872 84.872 0 0 0 4.184 -3.31c32.908 15.392 68.664 15.392 101.18 0a102.859 102.859 0 0 0 4.184 3.31 106.305 106.305 0 0 1 -17.098 8.323c3.13 6.266 6.748 12.242 10.838 17.85 16.517 -5.141 33.317 -12.998 50.637 -25.948 4.153 -43.975 -7.094 -82.102 -29.731 -115.906ZM66.777 105.543c-9.879 0 -17.98 -9.223 -17.98 -20.453s7.929 -20.469 17.98 -20.469c10.052 0 18.153 9.222 17.98 20.469 0.016 11.23 -7.928 20.453 -17.98 20.453Zm66.446 0c-9.879 0 -17.98 -9.223 -17.98 -20.453s7.928 -20.469 17.98 -20.469c10.052 0 18.153 9.222 17.98 20.469 0 11.23 -7.928 20.453 -17.98 20.453Z" fill="rgba(255, 255, 255, 0.6)" fill-rule="nonzero"/></g></svg>