<svg fill="rgba(255, 255, 255, 0.6)" height="200px" width="200px" version="1.1" id="Icons" xmlns="http://www.w3.org/2000/svg" xmlns:xlink="http://www.w3.org/1999/xlink" viewBox="0 0 8 8" xml:space="preserve"><path d="M5.75 0H2.25C1 0 0 1 0 2.25v3.5c0 1.25 1 2.25 2.25 2.25h3.5c1.25 0 2.25 -1 2.25 -2.25V2.25c0 -1.25 -1 -2.25 -2.25 -2.25zm-1.75 2.5c0.825 0 1.5 0.675 1.5 1.5s-0.675 1.5 -1.5 1.5 -1.5 -0.675 -1.5 -1.5 0.675 -1.5 1.5 -1.5zm1.5 -0.75c0 -0.275 0.225 -0.5 0.5 -0.5s0.5 0.225 0.5 0.5 -0.225 0.5 -0.5 0.5 -0.5 -0.225 -0.5 -0.5z"/></svg>