<svg width="228" height="65" viewBox="0 0 228 65" fill="none" xmlns="http://www.w3.org/2000/svg">
<path d="M14.9967 0.00488281C7.22426 0.00488281 0.92334 6.30581 0.92334 14.0782V50.1481C0.92334 57.9205 7.22426 64.2215 14.9967 64.2215H50.9911C58.7635 64.2215 65.0644 57.9205 65.0644 50.1481V14.0782C65.0644 6.30581 58.7635 0.00488281 50.9911 0.00488281H14.9967Z" fill="#FEDA03"/>
<path d="M45.2939 32.0383C47.2936 31.5101 49.1046 29.9632 49.1046 26.907C49.1046 21.7757 44.8411 20.5684 39.3325 20.5684H17.4868V43.6592H26.693V35.8113H37.5969C39.2948 35.8113 40.2758 36.4904 40.2758 38.1506V43.6214H49.4819V37.8487C49.4442 34.7549 47.7086 32.7552 45.2939 32.0383Z" fill="black"/>
<path d="M39.1061 27.0195H26.6929V30.1889H39.1061H39.1439C40.0116 30.1889 40.6908 29.472 40.6908 28.6042C40.6908 27.7364 40.0116 27.0195 39.1439 27.0195C39.1439 27.0195 39.1439 27.0195 39.1061 27.0195Z" fill="#FEDA03"/>
<path d="M192.441 37.32C192.441 44.0737 188.555 48.7145 181.952 48.7145C179.236 48.7145 176.745 47.5826 175.651 45.8093V48.3372H170.143V17.3608H175.651V28.7176C176.934 27.0575 179.273 25.9256 182.028 25.9256C188.555 25.9256 192.441 30.5664 192.441 37.32ZM175.312 37.32C175.312 41.3194 177.613 43.9228 181.16 43.9228C184.669 43.9228 186.97 41.2817 186.97 37.32C186.97 33.3207 184.669 30.7173 181.16 30.7173C177.613 30.7173 175.312 33.3207 175.312 37.32ZM113.963 48.3372L107.247 34.6412C110.265 33.1698 112.038 30.2268 112.038 26.7556C112.038 21.247 108.152 17.7004 102.153 17.7004H87.5515L87.5892 48.3372H93.5129V35.7731H101.134L107.02 48.3372H113.963ZM93.5506 22.8317H101.248C104.304 22.8317 106.039 24.3032 106.039 26.7556C106.039 29.2081 104.304 30.6418 101.248 30.6418H93.5506V22.8317ZM132.035 26.3029H137.544V48.3372H132.035V45.8093C130.941 47.5449 128.489 48.7145 125.734 48.7145C119.132 48.7145 115.245 44.0737 115.245 37.32C115.245 30.5664 119.132 25.9256 125.659 25.9256C128.413 25.9256 130.752 27.0575 132.035 28.7176V26.3029ZM120.716 37.32C120.716 41.3194 123.018 43.9228 126.527 43.9228C130.073 43.9228 132.375 41.2817 132.375 37.32C132.375 33.3207 130.073 30.7173 126.527 30.7173C123.018 30.7173 120.716 33.3207 120.716 37.32ZM157.013 26.3029L156.673 31.6605C155.881 31.321 154.824 31.1323 153.881 31.1323C150.787 31.1323 147.995 33.698 147.995 40.263V48.3372H142.486V26.2651H147.995V30.3023C149.089 27.8121 151.957 25.9256 154.636 25.9256C155.39 25.9256 156.333 26.0765 157.013 26.3029ZM165.275 48.3372H159.767V26.2651H165.275V48.3372ZM196.176 48.3372H201.685V17.3608H196.176V48.3372ZM227.304 36.5654C227.304 31.4342 223.682 25.9256 216.249 25.9256C208.967 25.9256 205.383 31.5851 205.383 37.32C205.383 43.055 209.269 48.7145 216.551 48.7145C221.72 48.7145 225.53 46.2621 226.775 42.1118L221.606 40.7158C221.04 42.8664 219.192 44.0737 216.626 44.0737C213.494 44.0737 211.344 42.1118 210.853 38.7915H227.19C227.266 38.3388 227.304 37.3578 227.304 36.5654ZM211.042 34.7167C211.646 31.736 213.57 30.1136 216.286 30.1136C219.494 30.1136 221.191 32.0756 221.456 34.7167H211.042ZM159.125 18.4928C159.125 17.0967 160.257 15.9648 161.653 15.9648H163.464C164.86 15.9648 165.992 17.0967 165.992 18.4928V20.3038C165.992 21.6998 164.86 22.8317 163.464 22.8317H161.653C160.257 22.8317 159.125 21.6998 159.125 20.3038V18.4928Z" fill="white"/>
</svg>
