<?xml version="1.0" encoding="UTF-8"?>
<svg width="1377px" height="452px" viewBox="0 0 1377 452" version="1.1" xmlns="http://www.w3.org/2000/svg" xmlns:xlink="http://www.w3.org/1999/xlink">
    <!-- Generator: Sketch 51.3 (57544) - http://www.bohemiancoding.com/sketch -->
    <title>Group 10</title>
    <desc>Created with Sketch.</desc>
    <defs></defs>
    <g id="Home" stroke="none" stroke-width="1" fill="none" fill-rule="evenodd" opacity="0.467131696">
        <g id="amlexa-home-desktop" transform="translate(-32.000000, -4273.000000)" fill="#BFCFDE">
            <g id="Group-10" transform="translate(32.000000, 4273.000000)">
                <g id="Group-9" opacity="0.469587054">
                    <path d="M612.124394,155.904688 C613.302088,154.766448 614.71532,154.197917 616.365269,154.197917 C617.973999,154.197917 619.348367,154.766448 620.487197,155.904688 C621.664891,157.081771 622.253738,158.475438 622.253738,160.083333 C622.253738,161.73125 621.664891,163.12374 620.487197,164.261979 C619.348367,165.400219 617.973999,165.96875 616.365269,165.96875 C614.716498,165.96875 613.302088,165.400219 612.124394,164.261979 C611.024428,163.12374 610.4768,161.73125 610.4768,160.083333 C610.475623,158.47426 611.024428,157.081771 612.124394,155.904688 Z M548.412337,267.845313 C546.606933,266.040844 545.703642,263.843229 545.703642,261.253646 C545.703642,258.664063 546.606933,256.447615 548.412337,254.603125 C550.256606,252.798656 552.475381,251.895833 555.065129,251.895833 C557.656056,251.895833 559.85481,252.798656 561.661392,254.603125 C563.50566,256.447615 564.428972,258.664063 564.428972,261.253646 C564.428972,263.843229 563.506838,266.040844 561.661392,267.845313 C559.855987,269.689802 557.657233,270.611458 555.065129,270.611458 C552.475381,270.611458 550.257783,269.689802 548.412337,267.845313 Z M486.944313,25.0785482 C488.788581,23.2729024 491.007356,22.3712565 493.598282,22.3712565 C496.189209,22.3712565 498.386785,23.2740794 500.193368,25.0785482 C502.037636,26.9218607 502.962126,29.1394857 502.962126,31.729069 C502.962126,34.3186524 502.038814,36.5150899 500.193368,38.3207357 C498.387963,40.1640482 496.190386,41.0868815 493.598282,41.0868815 C491.006179,41.0868815 488.788581,40.1652253 486.944313,38.3207357 C485.138908,36.5150899 484.235617,34.3186524 484.235617,31.729069 C484.235617,29.1394857 485.138908,26.9230378 486.944313,25.0785482 Z M425.939776,36.1431315 L429.178434,29.7868815 C431.611549,24.9996836 430.433855,21.3707357 425.645352,18.8988607 L416.459341,14.2199544 L421.817848,3.71448569 C423.742199,-0.0133372246 426.567487,-0.934993475 430.297243,0.948339859 L448.84592,10.3650065 C452.574498,12.2871836 453.478967,15.1121836 451.554615,18.8400065 L442.133065,37.379069 C440.248755,41.1068919 437.442311,42.0097149 433.712555,40.0863607 L425.939776,36.1431315 Z M420.875693,33.5535482 L415.1627,30.669694 C411.434122,28.7863607 410.51081,25.9813711 412.39512,22.2535482 L413.867237,19.3402669 L423.053248,24.0191732 C424.466481,24.7642669 424.819789,25.824819 424.113173,27.1972982 L420.875693,33.5535482 Z" id="Shape"></path>
                    <path d="M548.184388,77.1644857 C549.362082,76.0262461 550.775315,75.4577149 552.425264,75.4577149 C554.033993,75.4577149 555.408362,76.0262461 556.547192,77.1644857 C557.724886,78.341569 558.313732,79.7340586 558.313732,81.3431315 C558.313732,82.9910482 557.724886,84.3835378 556.547192,85.5217774 C555.408362,86.6600169 554.033993,87.2285482 552.425264,87.2285482 C550.776492,87.2285482 549.362082,86.6600169 548.184388,85.5217774 C547.084422,84.3847149 546.536795,82.9910482 546.536795,81.3431315 C546.535617,79.7340586 547.084422,78.341569 548.184388,77.1644857 Z M240.040816,78.1061524 C241.218509,76.9679128 242.630564,76.3993815 244.280513,76.3993815 C245.889243,76.3993815 247.263611,76.9679128 248.402441,78.1061524 C249.580135,79.2832357 250.168982,80.6757253 250.168982,82.2847982 C250.168982,83.9327149 249.580135,85.3252044 248.402441,86.463444 C247.263611,87.6016836 245.889243,88.1702149 244.280513,88.1702149 C242.631742,88.1702149 241.218509,87.6016836 240.040816,86.463444 C238.94085,85.3252044 238.392044,83.9327149 238.392044,82.2847982 C238.392044,80.6757253 238.942027,79.2832357 240.040816,78.1061524 Z M447.314918,140.726986 C448.492611,139.588746 449.905844,139.020215 451.554615,139.020215 C453.164523,139.020215 454.537713,139.588746 455.676543,140.726986 C456.854237,141.904069 457.443084,143.297736 457.443084,144.905632 C457.443084,146.553548 456.854237,147.946038 455.676543,149.084277 C454.537713,150.222517 453.164523,150.791048 451.554615,150.791048 C449.905844,150.791048 448.492611,150.222517 447.314918,149.084277 C446.216129,147.946038 445.666146,146.553548 445.666146,144.905632 C445.666146,143.296559 446.216129,141.904069 447.314918,140.726986 Z" id="Shape"></path>
                    <path d="M420.875693,33.5535482 L424.114351,27.1972982 C424.820967,25.8236419 424.467659,24.7642669 423.054426,24.0191732 L413.868415,19.3402669 L407.685523,16.191569 C406.27229,15.485319 405.212366,15.8196107 404.505749,17.1920899 L396.674086,32.5530274 C395.928606,34.0043711 396.261893,35.0837565 397.675126,35.7900065 L413.044029,43.6176107 C414.457262,44.3627044 415.537207,44.0095794 416.282687,42.5582357 L420.875693,33.5535482 Z M425.939776,36.1431315 L421.34677,45.147819 C418.873613,49.9738607 415.242783,51.150944 410.453103,48.679069 L395.084199,40.8514649 C390.295696,38.4184336 389.136846,34.7894857 391.610003,29.963444 L399.441666,14.6025065 C401.875959,9.81648569 405.486768,8.63940236 410.276449,11.0712565 L416.459341,14.2199544 L425.645352,18.8988607 C430.433855,21.3707357 431.611549,24.9996836 429.178434,29.7868815 L425.939776,36.1431315 Z M17.3389252,417.63584 C15.9256927,416.928413 14.8657683,417.263882 14.159152,418.636361 L6.32748853,433.997298 C5.58200837,435.448642 5.91529571,436.528027 7.32852822,437.234277 L22.6974318,445.061882 C24.1106643,445.808152 25.1906095,445.45385 25.9360897,444.002507 L33.7677532,428.641569 C34.4743694,427.26909 34.1210613,426.209715 32.7078288,425.463444 L17.3389252,417.63584 Z M9.09506887,416.046777 C11.5293619,411.260757 15.1401709,410.083673 19.9298515,412.515527 L35.2987551,420.343132 C40.0884356,422.815007 41.2661294,426.445132 38.8318364,431.231152 L31.0001728,446.59209 C28.5270159,451.419309 24.8961861,452.596392 20.1065055,450.12334 L4.73760195,442.296913 C-0.0520785817,439.863882 -1.20975155,436.234934 1.26340535,431.408892 L9.09506887,416.046777 Z" id="Shape"></path>
                    <path d="M21.4608534,133.782194 L13.0992277,138.019694 C12.3537475,138.411663 12.1759157,138.981371 12.5692655,139.726465 L16.808963,148.083757 C17.201135,148.82885 17.7699611,149.005413 18.516619,148.613444 L26.8782447,144.375944 C27.6237248,143.983975 27.8003789,143.415444 27.4082069,142.669173 L23.1685093,134.311882 C22.7763373,133.566788 22.2063335,133.390225 21.4608534,133.782194 Z M11.6859951,135.253548 L20.0476209,131.016048 C22.6385471,129.682413 24.6017626,130.309798 25.9360897,132.899382 L30.1757872,141.256673 C31.5101142,143.846257 30.8824035,145.808454 28.2914772,147.14209 L19.9298515,151.37959 C17.3389252,152.713225 15.3757097,152.08584 14.0413827,149.496257 L9.80168512,141.138965 C8.46735809,138.549382 9.09506887,136.587184 11.6859951,135.253548 Z" id="Shape"></path>
                </g>
                <g id="Group-9" opacity="0.469587054" transform="translate(1065.500000, 226.000000) scale(-1, -1) translate(-1065.500000, -226.000000) translate(754.000000, 0.000000)">
                    <path d="M612.124394,155.904688 C613.302088,154.766448 614.71532,154.197917 616.365269,154.197917 C617.973999,154.197917 619.348367,154.766448 620.487197,155.904688 C621.664891,157.081771 622.253738,158.475438 622.253738,160.083333 C622.253738,161.73125 621.664891,163.12374 620.487197,164.261979 C619.348367,165.400219 617.973999,165.96875 616.365269,165.96875 C614.716498,165.96875 613.302088,165.400219 612.124394,164.261979 C611.024428,163.12374 610.4768,161.73125 610.4768,160.083333 C610.475623,158.47426 611.024428,157.081771 612.124394,155.904688 Z M548.412337,267.845313 C546.606933,266.040844 545.703642,263.843229 545.703642,261.253646 C545.703642,258.664063 546.606933,256.447615 548.412337,254.603125 C550.256606,252.798656 552.475381,251.895833 555.065129,251.895833 C557.656056,251.895833 559.85481,252.798656 561.661392,254.603125 C563.50566,256.447615 564.428972,258.664063 564.428972,261.253646 C564.428972,263.843229 563.506838,266.040844 561.661392,267.845313 C559.855987,269.689802 557.657233,270.611458 555.065129,270.611458 C552.475381,270.611458 550.257783,269.689802 548.412337,267.845313 Z M486.944313,25.0785482 C488.788581,23.2729024 491.007356,22.3712565 493.598282,22.3712565 C496.189209,22.3712565 498.386785,23.2740794 500.193368,25.0785482 C502.037636,26.9218607 502.962126,29.1394857 502.962126,31.729069 C502.962126,34.3186524 502.038814,36.5150899 500.193368,38.3207357 C498.387963,40.1640482 496.190386,41.0868815 493.598282,41.0868815 C491.006179,41.0868815 488.788581,40.1652253 486.944313,38.3207357 C485.138908,36.5150899 484.235617,34.3186524 484.235617,31.729069 C484.235617,29.1394857 485.138908,26.9230378 486.944313,25.0785482 Z M425.939776,36.1431315 L429.178434,29.7868815 C431.611549,24.9996836 430.433855,21.3707357 425.645352,18.8988607 L416.459341,14.2199544 L421.817848,3.71448569 C423.742199,-0.0133372246 426.567487,-0.934993475 430.297243,0.948339859 L448.84592,10.3650065 C452.574498,12.2871836 453.478967,15.1121836 451.554615,18.8400065 L442.133065,37.379069 C440.248755,41.1068919 437.442311,42.0097149 433.712555,40.0863607 L425.939776,36.1431315 Z M420.875693,33.5535482 L415.1627,30.669694 C411.434122,28.7863607 410.51081,25.9813711 412.39512,22.2535482 L413.867237,19.3402669 L423.053248,24.0191732 C424.466481,24.7642669 424.819789,25.824819 424.113173,27.1972982 L420.875693,33.5535482 Z" id="Shape"></path>
                    <path d="M548.184388,77.1644857 C549.362082,76.0262461 550.775315,75.4577149 552.425264,75.4577149 C554.033993,75.4577149 555.408362,76.0262461 556.547192,77.1644857 C557.724886,78.341569 558.313732,79.7340586 558.313732,81.3431315 C558.313732,82.9910482 557.724886,84.3835378 556.547192,85.5217774 C555.408362,86.6600169 554.033993,87.2285482 552.425264,87.2285482 C550.776492,87.2285482 549.362082,86.6600169 548.184388,85.5217774 C547.084422,84.3847149 546.536795,82.9910482 546.536795,81.3431315 C546.535617,79.7340586 547.084422,78.341569 548.184388,77.1644857 Z M240.040816,78.1061524 C241.218509,76.9679128 242.630564,76.3993815 244.280513,76.3993815 C245.889243,76.3993815 247.263611,76.9679128 248.402441,78.1061524 C249.580135,79.2832357 250.168982,80.6757253 250.168982,82.2847982 C250.168982,83.9327149 249.580135,85.3252044 248.402441,86.463444 C247.263611,87.6016836 245.889243,88.1702149 244.280513,88.1702149 C242.631742,88.1702149 241.218509,87.6016836 240.040816,86.463444 C238.94085,85.3252044 238.392044,83.9327149 238.392044,82.2847982 C238.392044,80.6757253 238.942027,79.2832357 240.040816,78.1061524 Z M447.314918,140.726986 C448.492611,139.588746 449.905844,139.020215 451.554615,139.020215 C453.164523,139.020215 454.537713,139.588746 455.676543,140.726986 C456.854237,141.904069 457.443084,143.297736 457.443084,144.905632 C457.443084,146.553548 456.854237,147.946038 455.676543,149.084277 C454.537713,150.222517 453.164523,150.791048 451.554615,150.791048 C449.905844,150.791048 448.492611,150.222517 447.314918,149.084277 C446.216129,147.946038 445.666146,146.553548 445.666146,144.905632 C445.666146,143.296559 446.216129,141.904069 447.314918,140.726986 Z" id="Shape"></path>
                    <path d="M420.875693,33.5535482 L424.114351,27.1972982 C424.820967,25.8236419 424.467659,24.7642669 423.054426,24.0191732 L413.868415,19.3402669 L407.685523,16.191569 C406.27229,15.485319 405.212366,15.8196107 404.505749,17.1920899 L396.674086,32.5530274 C395.928606,34.0043711 396.261893,35.0837565 397.675126,35.7900065 L413.044029,43.6176107 C414.457262,44.3627044 415.537207,44.0095794 416.282687,42.5582357 L420.875693,33.5535482 Z M425.939776,36.1431315 L421.34677,45.147819 C418.873613,49.9738607 415.242783,51.150944 410.453103,48.679069 L395.084199,40.8514649 C390.295696,38.4184336 389.136846,34.7894857 391.610003,29.963444 L399.441666,14.6025065 C401.875959,9.81648569 405.486768,8.63940236 410.276449,11.0712565 L416.459341,14.2199544 L425.645352,18.8988607 C430.433855,21.3707357 431.611549,24.9996836 429.178434,29.7868815 L425.939776,36.1431315 Z M17.3389252,417.63584 C15.9256927,416.928413 14.8657683,417.263882 14.159152,418.636361 L6.32748853,433.997298 C5.58200837,435.448642 5.91529571,436.528027 7.32852822,437.234277 L22.6974318,445.061882 C24.1106643,445.808152 25.1906095,445.45385 25.9360897,444.002507 L33.7677532,428.641569 C34.4743694,427.26909 34.1210613,426.209715 32.7078288,425.463444 L17.3389252,417.63584 Z M9.09506887,416.046777 C11.5293619,411.260757 15.1401709,410.083673 19.9298515,412.515527 L35.2987551,420.343132 C40.0884356,422.815007 41.2661294,426.445132 38.8318364,431.231152 L31.0001728,446.59209 C28.5270159,451.419309 24.8961861,452.596392 20.1065055,450.12334 L4.73760195,442.296913 C-0.0520785817,439.863882 -1.20975155,436.234934 1.26340535,431.408892 L9.09506887,416.046777 Z" id="Shape"></path>
                    <path d="M21.4608534,133.782194 L13.0992277,138.019694 C12.3537475,138.411663 12.1759157,138.981371 12.5692655,139.726465 L16.808963,148.083757 C17.201135,148.82885 17.7699611,149.005413 18.516619,148.613444 L26.8782447,144.375944 C27.6237248,143.983975 27.8003789,143.415444 27.4082069,142.669173 L23.1685093,134.311882 C22.7763373,133.566788 22.2063335,133.390225 21.4608534,133.782194 Z M11.6859951,135.253548 L20.0476209,131.016048 C22.6385471,129.682413 24.6017626,130.309798 25.9360897,132.899382 L30.1757872,141.256673 C31.5101142,143.846257 30.8824035,145.808454 28.2914772,147.14209 L19.9298515,151.37959 C17.3389252,152.713225 15.3757097,152.08584 14.0413827,149.496257 L9.80168512,141.138965 C8.46735809,138.549382 9.09506887,136.587184 11.6859951,135.253548 Z" id="Shape"></path>
                </g>
            </g>
        </g>
    </g>
</svg>