<svg width="316" height="72" viewBox="0 0 316 72" fill="none" xmlns="http://www.w3.org/2000/svg">
<path d="M96.96 27.9602H88V22.6802H112.4V27.9602H103.44V50.6802H96.96V27.9602Z" fill="white"/>
<path d="M118.538 32.0001C119.285 30.9601 120.285 30.1731 121.538 29.6401C122.818 29.1061 124.285 28.8401 125.938 28.8401V34.6001C125.245 34.5461 124.778 34.5201 124.538 34.5201C122.751 34.5201 121.351 35.0261 120.338 36.0401C119.325 37.0261 118.818 38.5201 118.818 40.5201V50.6801H112.578V29.1601H118.538V32.0001Z" fill="white"/>
<path d="M149.084 29.1602V50.6802H143.164V48.1201C142.338 49.0531 141.351 49.7732 140.204 50.2802C139.058 50.7602 137.818 51.0002 136.484 51.0002C133.658 51.0002 131.418 50.1862 129.764 48.5602C128.111 46.9332 127.284 44.5202 127.284 41.3202V29.1602H133.524V40.4002C133.524 43.8662 134.978 45.6002 137.884 45.6002C139.378 45.6002 140.578 45.1202 141.484 44.1602C142.391 43.1732 142.844 41.7202 142.844 39.8002V29.1602H149.084Z" fill="white"/>
<path d="M159.705 51.0001C157.919 51.0001 156.172 50.7861 154.465 50.3601C152.759 49.9061 151.399 49.3461 150.385 48.6801L152.465 44.2001C153.425 44.8131 154.585 45.3201 155.945 45.7201C157.305 46.0931 158.639 46.2801 159.945 46.2801C162.585 46.2801 163.905 45.6261 163.905 44.3201C163.905 43.7061 163.545 43.2661 162.825 43.0001C162.105 42.7331 160.999 42.5061 159.505 42.3201C157.745 42.0531 156.292 41.7461 155.145 41.4001C153.999 41.0531 152.999 40.4401 152.145 39.5601C151.319 38.6801 150.905 37.4261 150.905 35.8001C150.905 34.4401 151.292 33.2401 152.065 32.2001C152.865 31.1331 154.012 30.3061 155.505 29.7201C157.025 29.1331 158.812 28.8401 160.865 28.8401C162.385 28.8401 163.892 29.0131 165.385 29.3601C166.905 29.6801 168.159 30.1331 169.145 30.7201L167.065 35.1601C165.172 34.0931 163.105 33.5601 160.865 33.5601C159.532 33.5601 158.532 33.7461 157.865 34.1201C157.199 34.4931 156.865 34.9731 156.865 35.5601C156.865 36.2261 157.225 36.6931 157.945 36.9601C158.665 37.2261 159.812 37.4801 161.385 37.7201C163.145 38.0131 164.585 38.3331 165.705 38.6801C166.825 39.0001 167.799 39.6001 168.625 40.4801C169.452 41.3601 169.865 42.5861 169.865 44.1601C169.865 45.4931 169.465 46.6801 168.665 47.7201C167.865 48.7601 166.692 49.5731 165.145 50.1601C163.625 50.7201 161.812 51.0001 159.705 51.0001Z" fill="white"/>
<path d="M185.195 49.6401C184.582 50.0931 183.822 50.4401 182.915 50.6801C182.035 50.8931 181.102 51.0001 180.115 51.0001C177.555 51.0001 175.569 50.3461 174.155 49.0401C172.769 47.7331 172.075 45.8131 172.075 43.2801V34.4401H168.755V29.6401H172.075V24.4001H178.315V29.6401H183.675V34.4401H178.315V43.2001C178.315 44.1061 178.542 44.8131 178.995 45.3201C179.475 45.8001 180.142 46.0401 180.995 46.0401C181.982 46.0401 182.822 45.7731 183.515 45.2401L185.195 49.6401Z" fill="white"/>
<path d="M237.986 22.6802L228.826 50.6802H221.866L215.706 31.7202L209.346 50.6802H202.426L193.226 22.6802H199.946L206.266 42.3602L212.866 22.6802H218.866L225.266 42.5202L231.786 22.6802H237.986Z" fill="white"/>
<path d="M245.842 28.8401C249.176 28.8401 251.736 29.6401 253.522 31.2401C255.309 32.8131 256.202 35.2001 256.202 38.4001V50.6801H250.362V48.0001C249.189 50.0001 247.002 51.0001 243.802 51.0001C242.149 51.0001 240.709 50.7201 239.482 50.1601C238.282 49.6001 237.362 48.8261 236.722 47.8401C236.082 46.8531 235.762 45.7331 235.762 44.4801C235.762 42.4801 236.509 40.9061 238.002 39.7601C239.522 38.6131 241.856 38.0401 245.002 38.0401H249.962C249.962 36.6801 249.549 35.6401 248.722 34.9201C247.896 34.1731 246.656 33.8001 245.002 33.8001C243.856 33.8001 242.722 33.9861 241.602 34.3601C240.509 34.7061 239.576 35.1861 238.802 35.8001L236.562 31.4401C237.736 30.6131 239.136 29.9731 240.762 29.5201C242.416 29.0661 244.109 28.8401 245.842 28.8401ZM245.362 46.8001C246.429 46.8001 247.376 46.5601 248.202 46.0801C249.029 45.5731 249.616 44.8401 249.962 43.8801V41.6801H245.682C243.122 41.6801 241.842 42.5201 241.842 44.2001C241.842 45.0001 242.149 45.6401 242.762 46.1201C243.402 46.5731 244.269 46.8001 245.362 46.8001Z" fill="white"/>
<path d="M259.45 21H265.69V50.68H259.45V21Z" fill="white"/>
<path d="M269.081 21H275.321V50.68H269.081V21Z" fill="white"/>
<path d="M299.792 40.0001C299.792 40.0801 299.752 40.6401 299.672 41.6801H283.392C283.686 43.0131 284.379 44.0661 285.472 44.8401C286.566 45.6131 287.926 46.0001 289.552 46.0001C290.672 46.0001 291.659 45.8401 292.512 45.5201C293.392 45.1731 294.206 44.6401 294.952 43.9201L298.272 47.5201C296.246 49.8401 293.286 51.0001 289.392 51.0001C286.966 51.0001 284.819 50.5331 282.952 49.6001C281.086 48.6401 279.646 47.3201 278.632 45.6401C277.619 43.9601 277.112 42.0531 277.112 39.9201C277.112 37.8131 277.606 35.9201 278.592 34.2401C279.606 32.5331 280.979 31.2131 282.712 30.2801C284.472 29.3201 286.432 28.8401 288.592 28.8401C290.699 28.8401 292.606 29.2931 294.312 30.2001C296.019 31.1061 297.352 32.4131 298.312 34.1201C299.299 35.8001 299.792 37.7601 299.792 40.0001ZM288.632 33.5601C287.219 33.5601 286.032 33.9601 285.072 34.7601C284.112 35.5601 283.526 36.6531 283.312 38.0401H293.912C293.699 36.6801 293.112 35.6001 292.152 34.8001C291.192 33.9731 290.019 33.5601 288.632 33.5601Z" fill="white"/>
<path d="M315.427 49.6401C314.813 50.0931 314.053 50.4401 313.147 50.6801C312.267 50.8931 311.333 51.0001 310.347 51.0001C307.787 51.0001 305.8 50.3461 304.387 49.0401C303 47.7331 302.307 45.8131 302.307 43.2801V34.4401H298.987V29.6401H302.307V24.4001H308.547V29.6401H313.907V34.4401H308.547V43.2001C308.547 44.1061 308.773 44.8131 309.227 45.3201C309.707 45.8001 310.373 46.0401 311.227 46.0401C312.213 46.0401 313.053 45.7731 313.747 45.2401L315.427 49.6401Z" fill="white"/>
<path d="M30.4814 3C41.6026 12.3055 54.3561 11.7317 58 11.7317C57.2031 64.6548 51.13 54.1601 30.4814 69C9.83284 54.1601 3.79763 64.6548 3 11.7317C6.60596 11.7317 19.3595 12.3055 30.4814 3Z" stroke="#3375BB" stroke-width="6" stroke-miterlimit="10" stroke-linecap="round" stroke-linejoin="round"/>
</svg>
