<svg fill="rgba(255, 255, 255, 0.6)" width="200px" height="200px" viewBox="-0.5 -1 6 6" xmlns="http://www.w3.org/2000/svg" preserveAspectRatio="xMinYMin" class="jam jam-twitter"><path d="M5 0.477a2.073 2.073 0 0 1 -0.589 0.159A1.018 1.018 0 0 0 4.862 0.077a2.087 2.087 0 0 1 -0.652 0.245A1.03 1.03 0 0 0 3.462 0.004c-0.567 0 -1.026 0.453 -1.026 1.01 0 0.079 0.009 0.156 0.026 0.23A2.927 2.927 0 0 1 0.348 0.189a0.991 0.991 0 0 0 -0.139 0.507 1.005 1.005 0 0 0 0.456 0.841A1.038 1.038 0 0 1 0.201 1.41v0.013c0 0.489 0.354 0.898 0.823 0.991a1.054 1.054 0 0 1 -0.27 0.035c-0.066 0 -0.131 -0.006 -0.193 -0.019a1.024 1.024 0 0 0 0.958 0.702 2.078 2.078 0 0 1 -1.274 0.432c-0.083 0 -0.165 -0.005 -0.245 -0.014a2.932 2.932 0 0 0 1.572 0.455c1.887 0 2.918 -1.539 2.918 -2.874l-0.004 -0.131A2.031 2.031 0 0 0 5 0.477z"/></svg>